# xmcd
#
# Track frame offsets: 
#        150
#        13960
#        28018
#        35591
#        50962
#        58730
#        70433
#        82436
#        108098
#        121918
#        135779
#        169442
#        173858
#        186421
#        195411
#
# Disc length: 2776 seconds
#
# Revision: 0
# Processed by: cddbd v1.5.2PL0 Copyright (c) Steve Scherf et al.
# Submitted via: ExactAudioCopy v1.1
#
DISCID=df0ad60f
DTITLE=IL MUSICAL - THE BLUES LEGEND
DYEAR=2015
DGENRE=Blues
TTITLE0=Think
TTITLE1=Try A Little Tenderness
TTITLE2=Sweet Home Chicago
TTITLE3=Soul Man
TTITLE4=Land Of 1000 Dances
TTITLE5=Respect
TTITLE6=Chain Of Fools
TTITLE7=Medley: It's A Man's World . Ain't No Sunshine
TTITLE8=Stand By Me
TTITLE9=I Just Want To Make Love To You
TTITLE10=Medley: Natural Woman - I've Been Loving You Too Long - When 
TTITLE10=A Man Loves A Woman - At Last!
TTITLE11=I Feel Good
TTITLE12=Everybody Needs Somebody To Love
TTITLE13=Gimme Some Lovin'
TTITLE14=Shake A Tail Feather
EXTD=
EXTT0=
EXTT1=
EXTT2=
EXTT3=
EXTT4=
EXTT5=
EXTT6=
EXTT7=
EXTT8=
EXTT9=
EXTT10=
EXTT11=
EXTT12=
EXTT13=
EXTT14=
PLAYORDER=
